{
	"asset":{
		"generator":"Khronos glTF Blender I/O v4.4.56",
		"version":"2.0"
	},
	"scene":0,
	"scenes":[
		{
			"name":"Scene",
			"nodes":[
				0,
				1,
				2,
				3,
				4,
				5,
				6
			]
		}
	],
	"nodes":[
		{
			"mesh":0,
			"name":"center",
			"scale":[
				0.21754002571105957,
				0.21754002571105957,
				0.21754002571105957
			]
		},
		{
			"mesh":1,
			"name":"y",
			"scale":[
				0.19045960903167725,
				1,
				0.1899999976158142
			],
			"translation":[
				0,
				0.7975199818611145,
				0
			]
		},
		{
			"mesh":2,
			"name":"conus",
			"scale":[
				0.39318859577178955,
				0.6016932129859924,
				0.39318859577178955
			],
			"translation":[
				-0.004044746048748493,
				2.2480568885803223,
				0
			]
		},
		{
			"mesh":3,
			"name":"top_x",
			"rotation":[
				0,
				0,
				-0.7071064710617065,
				0.7071071863174438
			],
			"scale":[
				0.39318859577178955,
				0.6016932129859924,
				0.39318859577178955
			],
			"translation":[
				2.3046905994415283,
				-0.01311194896697998,
				0
			]
		},
		{
			"mesh":4,
			"name":"x",
			"rotation":[
				0,
				0,
				-0.7071064710617065,
				0.7071071863174438
			],
			"scale":[
				0.19045960903167725,
				1,
				0.1899999976158142
			],
			"translation":[
				0.8541536331176758,
				-0.017155766487121582,
				0
			]
		},
		{
			"mesh":5,
			"name":"top_z",
			"rotation":[
				0.5000002384185791,
				-0.4999997615814209,
				-0.4999998211860657,
				0.5000002384185791
			],
			"scale":[
				0.39318859577178955,
				0.6016932129859924,
				0.39318859577178955
			],
			"translation":[
				0.01563560962677002,
				-0.01311194896697998,
				2.2830607891082764
			]
		},
		{
			"mesh":6,
			"name":"z",
			"rotation":[
				0.5000002384185791,
				-0.4999997615814209,
				-0.4999998211860657,
				0.5000002384185791
			],
			"scale":[
				0.19045960903167725,
				1,
				0.1899999976158142
			],
			"translation":[
				0.01563560962677002,
				-0.017155766487121582,
				0.832523763179779
			]
		}
	],
	"materials":[
		{
			"doubleSided":true,
			"name":"material006",
			"pbrMetallicRoughness":{
				"baseColorFactor":[
					0.8027338981628418,
					0.7994704246520996,
					0.23847606778144836,
					1
				],
				"metallicFactor":0,
				"roughnessFactor":0.5
			}
		},
		{
			"doubleSided":true,
			"name":"material",
			"pbrMetallicRoughness":{
				"baseColorFactor":[
					0.7990989089012146,
					0,
					0.0021247053518891335,
					1
				],
				"metallicFactor":0,
				"roughnessFactor":0.5
			}
		},
		{
			"doubleSided":true,
			"name":"material001",
			"pbrMetallicRoughness":{
				"baseColorFactor":[
					0.7990989089012146,
					0,
					0.0021247053518891335,
					1
				],
				"metallicFactor":0,
				"roughnessFactor":0.5
			}
		},
		{
			"doubleSided":true,
			"name":"material002",
			"pbrMetallicRoughness":{
				"baseColorFactor":[
					0.0030347539577633142,
					0,
					0.7991030812263489,
					1
				],
				"metallicFactor":0,
				"roughnessFactor":0.5
			}
		},
		{
			"doubleSided":true,
			"name":"material003",
			"pbrMetallicRoughness":{
				"baseColorFactor":[
					0.0030347539577633142,
					0,
					0.7991030812263489,
					1
				],
				"metallicFactor":0,
				"roughnessFactor":0.5
			}
		},
		{
			"doubleSided":true,
			"name":"material005",
			"pbrMetallicRoughness":{
				"baseColorFactor":[
					0,
					0.7991040349006653,
					0.01680755615234375,
					1
				],
				"metallicFactor":0,
				"roughnessFactor":0.5
			}
		},
		{
			"doubleSided":true,
			"name":"material004",
			"pbrMetallicRoughness":{
				"baseColorFactor":[
					0,
					0.7991040349006653,
					0.01680755615234375,
					1
				],
				"metallicFactor":0,
				"roughnessFactor":0.5
			}
		}
	],
	"meshes":[
		{
			"name":"cube",
			"primitives":[
				{
					"attributes":{
						"POSITION":0,
						"NORMAL":1,
						"TEXCOORD_0":2
					},
					"indices":3,
					"material":0
				}
			]
		},
		{
			"name":"cylinder",
			"primitives":[
				{
					"attributes":{
						"POSITION":4,
						"NORMAL":5,
						"TEXCOORD_0":6
					},
					"indices":7,
					"material":1
				}
			]
		},
		{
			"name":"conus",
			"primitives":[
				{
					"attributes":{
						"POSITION":8,
						"NORMAL":9,
						"TEXCOORD_0":10
					},
					"indices":11,
					"material":2
				}
			]
		},
		{
			"name":"conus001",
			"primitives":[
				{
					"attributes":{
						"POSITION":12,
						"NORMAL":13,
						"TEXCOORD_0":14
					},
					"indices":11,
					"material":3
				}
			]
		},
		{
			"name":"cylinder001",
			"primitives":[
				{
					"attributes":{
						"POSITION":15,
						"NORMAL":16,
						"TEXCOORD_0":17
					},
					"indices":7,
					"material":4
				}
			]
		},
		{
			"name":"conus002",
			"primitives":[
				{
					"attributes":{
						"POSITION":18,
						"NORMAL":19,
						"TEXCOORD_0":20
					},
					"indices":11,
					"material":5
				}
			]
		},
		{
			"name":"cylinder002",
			"primitives":[
				{
					"attributes":{
						"POSITION":21,
						"NORMAL":22,
						"TEXCOORD_0":23
					},
					"indices":7,
					"material":6
				}
			]
		}
	],

    "textures" : [
        {
            "sampler" : 0,
            "source" : 0
        }
    ],
    "images" : [
        {
            "mimeType" : "image/png",
            "name" : "diffuse",
            "uri" : "baseColor.png"
        },
	{
	    "uri" : "metallicRoughness.png"
	}
    ],

	"accessors":[
		{
			"bufferView":0,
			"componentType":5126,
			"count":24,
			"max":[
				1,
				1,
				1
			],
			"min":[
				-1,
				-1,
				-1
			],
			"type":"VEC3"
		},
		{
			"bufferView":1,
			"componentType":5126,
			"count":24,
			"type":"VEC3"
		},
		{
			"bufferView":2,
			"componentType":5126,
			"count":24,
			"type":"VEC2"
		},
		{
			"bufferView":3,
			"componentType":5123,
			"count":36,
			"type":"SCALAR"
		},
		{
			"bufferView":4,
			"componentType":5126,
			"count":130,
			"max":[
				1,
				1,
				1
			],
			"min":[
				-1,
				-1,
				-1
			],
			"type":"VEC3"
		},
		{
			"bufferView":5,
			"componentType":5126,
			"count":130,
			"type":"VEC3"
		},
		{
			"bufferView":6,
			"componentType":5126,
			"count":130,
			"type":"VEC2"
		},
		{
			"bufferView":7,
			"componentType":5123,
			"count":372,
			"type":"SCALAR"
		},
		{
			"bufferView":8,
			"componentType":5126,
			"count":65,
			"max":[
				1,
				1,
				1
			],
			"min":[
				-1,
				-1,
				-1
			],
			"type":"VEC3"
		},
		{
			"bufferView":9,
			"componentType":5126,
			"count":65,
			"type":"VEC3"
		},
		{
			"bufferView":10,
			"componentType":5126,
			"count":65,
			"type":"VEC2"
		},
		{
			"bufferView":11,
			"componentType":5123,
			"count":186,
			"type":"SCALAR"
		},
		{
			"bufferView":12,
			"componentType":5126,
			"count":65,
			"max":[
				1,
				1,
				1
			],
			"min":[
				-1,
				-1,
				-1
			],
			"type":"VEC3"
		},
		{
			"bufferView":13,
			"componentType":5126,
			"count":65,
			"type":"VEC3"
		},
		{
			"bufferView":14,
			"componentType":5126,
			"count":65,
			"type":"VEC2"
		},
		{
			"bufferView":15,
			"componentType":5126,
			"count":130,
			"max":[
				1,
				1,
				1
			],
			"min":[
				-1,
				-1,
				-1
			],
			"type":"VEC3"
		},
		{
			"bufferView":16,
			"componentType":5126,
			"count":130,
			"type":"VEC3"
		},
		{
			"bufferView":17,
			"componentType":5126,
			"count":130,
			"type":"VEC2"
		},
		{
			"bufferView":18,
			"componentType":5126,
			"count":65,
			"max":[
				1,
				1,
				1
			],
			"min":[
				-1,
				-1,
				-1
			],
			"type":"VEC3"
		},
		{
			"bufferView":19,
			"componentType":5126,
			"count":65,
			"type":"VEC3"
		},
		{
			"bufferView":20,
			"componentType":5126,
			"count":65,
			"type":"VEC2"
		},
		{
			"bufferView":21,
			"componentType":5126,
			"count":130,
			"max":[
				1,
				1,
				1
			],
			"min":[
				-1,
				-1,
				-1
			],
			"type":"VEC3"
		},
		{
			"bufferView":22,
			"componentType":5126,
			"count":130,
			"type":"VEC3"
		},
		{
			"bufferView":23,
			"componentType":5126,
			"count":130,
			"type":"VEC2"
		}
	],
	"bufferViews":[
		{
			"buffer":0,
			"byteLength":288,
			"byteOffset":0,
			"target":34962
		},
		{
			"buffer":0,
			"byteLength":288,
			"byteOffset":288,
			"target":34962
		},
		{
			"buffer":0,
			"byteLength":192,
			"byteOffset":576,
			"target":34962
		},
		{
			"buffer":0,
			"byteLength":72,
			"byteOffset":768,
			"target":34963
		},
		{
			"buffer":0,
			"byteLength":1560,
			"byteOffset":840,
			"target":34962
		},
		{
			"buffer":0,
			"byteLength":1560,
			"byteOffset":2400,
			"target":34962
		},
		{
			"buffer":0,
			"byteLength":1040,
			"byteOffset":3960,
			"target":34962
		},
		{
			"buffer":0,
			"byteLength":744,
			"byteOffset":5000,
			"target":34963
		},
		{
			"buffer":0,
			"byteLength":780,
			"byteOffset":5744,
			"target":34962
		},
		{
			"buffer":0,
			"byteLength":780,
			"byteOffset":6524,
			"target":34962
		},
		{
			"buffer":0,
			"byteLength":520,
			"byteOffset":7304,
			"target":34962
		},
		{
			"buffer":0,
			"byteLength":372,
			"byteOffset":7824,
			"target":34963
		},
		{
			"buffer":0,
			"byteLength":780,
			"byteOffset":8196,
			"target":34962
		},
		{
			"buffer":0,
			"byteLength":780,
			"byteOffset":8976,
			"target":34962
		},
		{
			"buffer":0,
			"byteLength":520,
			"byteOffset":9756,
			"target":34962
		},
		{
			"buffer":0,
			"byteLength":1560,
			"byteOffset":10276,
			"target":34962
		},
		{
			"buffer":0,
			"byteLength":1560,
			"byteOffset":11836,
			"target":34962
		},
		{
			"buffer":0,
			"byteLength":1040,
			"byteOffset":13396,
			"target":34962
		},
		{
			"buffer":0,
			"byteLength":780,
			"byteOffset":14436,
			"target":34962
		},
		{
			"buffer":0,
			"byteLength":780,
			"byteOffset":15216,
			"target":34962
		},
		{
			"buffer":0,
			"byteLength":520,
			"byteOffset":15996,
			"target":34962
		},
		{
			"buffer":0,
			"byteLength":1560,
			"byteOffset":16516,
			"target":34962
		},
		{
			"buffer":0,
			"byteLength":1560,
			"byteOffset":18076,
			"target":34962
		},
		{
			"buffer":0,
			"byteLength":1040,
			"byteOffset":19636,
			"target":34962
		}
	],
	"buffers":[
		{
			"byteLength":20676,
			"uri":"scene.bin"
		}
	]
}
